<?xml version="1.0" encoding="UTF-8" standalone="no"?>
<svg
   xmlns:dc="http://purl.org/dc/elements/1.1/"
   xmlns:cc="http://creativecommons.org/ns#"
   xmlns:rdf="http://www.w3.org/1999/02/22-rdf-syntax-ns#"
   xmlns:svg="http://www.w3.org/2000/svg"
   xmlns="http://www.w3.org/2000/svg"
   xmlns:sodipodi="http://sodipodi.sourceforge.net/DTD/sodipodi-0.dtd"
   xmlns:inkscape="http://www.inkscape.org/namespaces/inkscape"
   id="bac3cfc7-b61b-48ce-8441-8100e40ddaa6"
   data-name="Layer 1"
   width="797.5"
   height="834.5"
   viewBox="0 0 797.5 834.5"
   version="1.1"
   sodipodi:docname="undraw_void_3ggu.svg"
   inkscape:version="0.92.3 (2405546, 2018-03-11)">
  <metadata
     id="metadata51">
    <rdf:RDF>
      <cc:Work
         rdf:about="">
        <dc:format>image/svg+xml</dc:format>
        <dc:type
           rdf:resource="http://purl.org/dc/dcmitype/StillImage" />
      </cc:Work>
    </rdf:RDF>
  </metadata>
  <defs
     id="defs49" />
  <sodipodi:namedview
     pagecolor="#ffffff"
     bordercolor="#666666"
     borderopacity="1"
     objecttolerance="10"
     gridtolerance="10"
     guidetolerance="10"
     inkscape:pageopacity="0"
     inkscape:pageshadow="2"
     inkscape:window-width="1920"
     inkscape:window-height="1017"
     id="namedview47"
     showgrid="false"
     inkscape:zoom="0.79989071"
     inkscape:cx="602.64461"
     inkscape:cy="453.91382"
     inkscape:window-x="1912"
     inkscape:window-y="-8"
     inkscape:window-maximized="1"
     inkscape:current-layer="bac3cfc7-b61b-48ce-8441-8100e40ddaa6" />
  <title
     id="title2">void</title>
  <ellipse
     cx="309.384"
     cy="779.55798"
     rx="308.5"
     ry="54.5"
     id="ellipse4"
     style="fill:#3f3d56" />
  <circle
     cx="496"
     cy="301.5"
     r="301.5"
     fill="#3f3d56"
     id="circle6" />
  <circle
     cx="496"
     cy="301.5"
     r="248.89787"
     opacity="0.05"
     id="circle8" />
  <circle
     cx="496"
     cy="301.5"
     r="203.99362"
     opacity="0.05"
     id="circle10" />
  <circle
     cx="496"
     cy="301.5"
     r="146.25957"
     opacity="0.05"
     id="circle12" />
  <path
     d="m 197.17029,311.29239 c 0,0 -23.70394,75.09676 -13.16886,101.77586 10.53508,26.6791 27.21564,52.37009 27.21564,52.37009 0,0 -6.14547,-149.20537 -14.04678,-154.14595 z"
     id="path14"
     inkscape:connector-curvature="0"
     style="fill:#d0cde1;stroke-width:1.06090224" />
  <path
     d="m 203.98228,330.67002 c 0,0 -9.83532,56.5205 -5.46407,76.60015 4.37125,20.07963 11.29241,39.4156 11.29241,39.4156 0,0 -2.5499,-112.29729 -5.82834,-116.01575 z"
     id="path16"
     inkscape:connector-curvature="0"
     style="opacity:0.1;stroke-width:0.59285945" />
  <path
     d="M415.10084,515.74682s-1.75585,16.68055-2.63377,17.55847.87792,2.63377,0,5.26754-1.75585,6.14547,0,7.02339-9.65716,78.13521-9.65716,78.13521-28.09356,36.8728-16.68055,94.81576l3.51169,58.82089s27.21564,1.75585,27.21564-7.90132c0,0-1.75585-11.413-1.75585-16.68055s4.38962-5.26754,1.75585-7.90131-2.63377-4.38962-2.63377-4.38962,4.38961-3.51169,3.51169-4.38962,7.90131-63.2105,7.90131-63.2105,9.65716-9.65716,9.65716-14.92471v-5.26754s4.38962-11.413,4.38962-12.29093,23.70394-54.43127,23.70394-54.43127l9.65716,38.62864,10.53509,55.3092s5.26754,50.04165,15.80262,69.356c0,0,18.4364,63.21051,18.4364,61.45466s30.72733-6.14547,29.84941-14.04678-18.4364-118.5197-18.4364-118.5197L533.62054,513.991Z"
     transform="translate(-201.25 -32.75)"
     fill="#2f2e41"
     id="path18" />
  <path
     d="M391.3969,772.97846s-23.70394,46.53-7.90131,48.2858,21.94809,1.75585,28.97148-5.26754c3.83968-3.83968,11.61528-8.99134,17.87566-12.87285a23.117,23.117,0,0,0,10.96893-21.98175c-.463-4.29531-2.06792-7.83444-6.01858-8.16366-10.53508-.87792-22.826-10.53508-22.826-10.53508Z"
     transform="translate(-201.25 -32.75)"
     fill="#2f2e41"
     id="path20" />
  <path
     d="M522.20753,807.21748s-23.70394,46.53-7.90131,48.28581,21.94809,1.75584,28.97148-5.26754c3.83968-3.83969,11.61528-8.99134,17.87566-12.87285a23.117,23.117,0,0,0,10.96893-21.98175c-.463-4.29531-2.06792-7.83444-6.01857-8.16367-10.53509-.87792-22.826-10.53508-22.826-10.53508Z"
     transform="translate(-201.25 -32.75)"
     fill="#2f2e41"
     id="path22" />
  <circle
     cx="295.90488"
     cy="215.43252"
     r="36.90462"
     fill="#ffb8b8"
     id="circle24" />
  <path
     d="M473.43048,260.30832S447.07,308.81154,444.9612,308.81154,492.41,324.62781,492.41,324.62781s13.70743-46.39439,15.81626-50.61206Z"
     transform="translate(-201.25 -32.75)"
     fill="#ffb8b8"
     id="path26" />
  <path
     d="m 311.99217,280.6354 c 0,0 -52.67543,-28.97148 -57.943,-28.09356 -5.26757,0.87792 -61.45466,50.04166 -60.57673,70.2339 0.87793,20.19224 7.90131,53.55335 7.90131,53.55335 0,0 2.63377,93.05991 7.90131,93.93783 5.26754,0.87792 -0.87792,16.68055 0.87793,16.68055 1.75585,0 122.90931,0 123.78724,-2.63377 0.87793,-2.63377 -21.94806,-203.6783 -21.94806,-203.6783 z"
     id="path28"
     inkscape:connector-curvature="0"
     style="fill:#d0cde1" />
  <path
     d="M543.2777,521.89228s16.68055,50.91958,2.63377,49.16373-20.19224-43.89619-20.19224-43.89619Z"
     transform="translate(-201.25 -32.75)"
     fill="#ffb8b8"
     id="path30" />
  <path
     d="M498.50359,310.31267s-32.48318,7.02339-27.21563,50.91957,14.9247,87.79237,14.9247,87.79237l32.48318,71.11182,3.51169,13.16886,23.70394-6.14547L528.353,425.32067s-6.14547-108.86253-14.04678-112.37423A33.99966,33.99966,0,0,0,498.50359,310.31267Z"
     transform="translate(-201.25 -32.75)"
     fill="#d0cde1"
     id="path32" />
  <polygon
     points="283.86,411.09 277.5,414.958 317.885,486.947 "
     id="polygon34"
     transform="matrix(0.70591501,0,0,2.0794809,93.485208,-525.65001)"
     style="opacity:0.1" />
  <path
     d="M533.896,237.31585l.122-2.82012,5.6101,1.39632a6.26971,6.26971,0,0,0-2.5138-4.61513l5.97581-.33413a64.47667,64.47667,0,0,0-43.1245-26.65136c-12.92583-1.87346-27.31837.83756-36.182,10.43045-4.29926,4.653-7.00067,10.57018-8.92232,16.60685-3.53926,11.11821-4.26038,24.3719,3.11964,33.40938,7.5006,9.18513,20.602,10.98439,32.40592,12.12114,4.15328.4,8.50581.77216,12.35457-.83928a29.721,29.721,0,0,0-1.6539-13.03688,8.68665,8.68665,0,0,1-.87879-4.15246c.5247-3.51164,5.20884-4.39635,8.72762-3.9219s7.74984,1.20031,10.062-1.49432c1.59261-1.85609,1.49867-4.559,1.70967-6.99575C521.28248,239.785,533.83587,238.70653,533.896,237.31585Z"
     transform="translate(-201.25 -32.75)"
     fill="#2f2e41"
     id="path36" />
  <circle
     cx="559"
     cy="744.5"
     r="43"
     fill="#6c63ff"
     id="circle38"
     style="fill:#fa5491;fill-opacity:1" />
  <circle
     cx="54"
     cy="729.5"
     r="43"
     fill="#6c63ff"
     id="circle40"
     style="fill:#fa2a91;fill-opacity:1" />
  <circle
     cx="54"
     cy="672.5"
     r="31"
     fill="#6c63ff"
     id="circle42"
     style="fill:#fa6191;fill-opacity:1" />
  <circle
     cx="54"
     cy="624.5"
     r="22"
     fill="#6c63ff"
     id="circle44"
     style="fill:#fa7c91;fill-opacity:1" />
</svg>
